<svg xmlns="http://www.w3.org/2000/svg" width="22" height="17" viewBox="0 0 22 17">
    <path fill="#ccc" fill-rule="evenodd" d="M22 2.017c-.8.334-1.67.565-2.589.68.942-.542 1.658-1.372 1.993-2.386a9.396 9.396 0 0 1-2.875 1.049C17.716.519 16.536 0 15.223 0c-2.481 0-4.51 1.925-4.51 4.287 0 .346.06.669.132.98C7.087 5.094 3.758 3.388 1.538.784c-.381.645-.62 1.371-.62 2.155 0 1.498.811 2.812 2.004 3.573a4.491 4.491 0 0 1-2.04-.53v.057c0 .553.108 1.06.31 1.545.55 1.348 1.802 2.362 3.318 2.65a4.583 4.583 0 0 1-1.193.162c-.287 0-.573-.035-.848-.092.585 1.706 2.243 2.95 4.212 2.996a9.337 9.337 0 0 1-5.596 1.833c-.37 0-.715-.024-1.085-.058A13.366 13.366 0 0 0 6.92 17c7.05 0 11.406-4.714 12.539-9.613.203-.875.298-1.74.298-2.592V4.24A9.171 9.171 0 0 0 22 2.017z"/>
</svg>
